<svg width="280" height="190" viewBox="0 0 280 190" fill="none" xmlns="http://www.w3.org/2000/svg">
  <!-- Controller outline with gradient -->
  <rect width="280" height="190" rx="20" fill="url(#controllerGradient)"/>
  
  <!-- D-pad -->
  <rect x="56" y="57" width="56" height="56" rx="8" fill="url(#dpadGradient)"/>
  <circle cx="84" cy="85" r="8" fill="#00d4aa"/>
  <circle cx="84" cy="77" r="8" fill="#00d4aa"/>
  <circle cx="76" cy="85" r="8" fill="#00d4aa"/>
  <circle cx="92" cy="85" r="8" fill="#00d4aa"/>
  
  <!-- Left analog stick -->
  <circle cx="140" cy="133" r="21" fill="url(#leftStickGradient)"/>
  
  <!-- Right analog stick -->
  <circle cx="220" cy="133" r="21" fill="url(#rightStickGradient)"/>
  
  <!-- Action buttons -->
  <circle cx="200" cy="57" r="16" fill="url(#buttonGradient)"/>
  <circle cx="220" cy="77" r="16" fill="url(#buttonGradient)"/>
  <circle cx="200" cy="97" r="16" fill="url(#buttonGradient)"/>
  <circle cx="220" cy="117" r="16" fill="url(#buttonGradient)"/>
  
  <defs>
    <linearGradient id="controllerGradient" x1="0" y1="0" x2="280" y2="190" gradientUnits="userSpaceOnUse">
      <stop stop-color="#00d4aa"/>
      <stop offset="0.5" stop-color="#8b5cf6"/>
      <stop offset="1" stop-color="#ff6b9d"/>
    </linearGradient>
    <linearGradient id="dpadGradient" x1="56" y1="57" x2="112" y2="113" gradientUnits="userSpaceOnUse">
      <stop stop-color="#00d4aa"/>
      <stop offset="1" stop-color="#8b5cf6"/>
    </linearGradient>
    <linearGradient id="leftStickGradient" x1="119" y1="112" x2="161" y2="154" gradientUnits="userSpaceOnUse">
      <stop stop-color="#00d4aa"/>
      <stop offset="1" stop-color="#8b5cf6"/>
    </linearGradient>
    <linearGradient id="rightStickGradient" x1="199" y1="112" x2="241" y2="154" gradientUnits="userSpaceOnUse">
      <stop stop-color="#8b5cf6"/>
      <stop offset="1" stop-color="#ff6b9d"/>
    </linearGradient>
    <linearGradient id="buttonGradient" x1="184" y1="41" x2="236" y2="133" gradientUnits="userSpaceOnUse">
      <stop stop-color="#ff6b9d"/>
      <stop offset="1" stop-color="#ff6b9d"/>
    </linearGradient>
  </defs>
</svg>
